<svg id="cat_other" enable-background="new 0 0 512 512" height="52" style="fill:#fff;" viewBox="0 0 512 512" width="52" xmlns="http://www.w3.org/2000/svg"><g><path d="m416 292c-14.304 0-27.449 5.039-37.77 13.424l-63.542-36.956c.854-4.024 1.312-8.193 1.312-12.468s-.458-8.444-1.312-12.469l63.542-36.956c10.321 8.386 23.466 13.425 37.77 13.425 33.084 0 60-26.916 60-60s-26.916-60-60-60c-14.105 0-27.079 4.905-37.334 13.082l-64.104-40.066c.931-4.194 1.438-8.546 1.438-13.016 0-33.084-26.916-60-60-60s-60 26.916-60 60c0 4.47.507 8.822 1.438 13.016l-64.104 40.066c-10.255-8.177-23.229-13.082-37.334-13.082-33.084 0-60 26.916-60 60s26.916 60 60 60c14.304 0 27.449-5.039 37.77-13.424l63.542 36.956c-.854 4.024-1.312 8.193-1.312 12.468s.458 8.444 1.312 12.469l-63.542 36.956c-10.321-8.386-23.466-13.425-37.77-13.425-33.084 0-60 26.916-60 60s26.916 60 60 60c14.105 0 27.079-4.905 37.334-13.082l64.104 40.066c-.931 4.194-1.438 8.546-1.438 13.016 0 33.084 26.916 60 60 60s60-26.916 60-60-26.916-60-60-60c-14.105 0-27.079 4.905-37.334 13.082l-64.104-40.066c.931-4.194 1.438-8.546 1.438-13.016 0-4.275-.458-8.444-1.312-12.469l63.542-36.956c10.321 8.386 23.466 13.425 37.77 13.425s27.449-5.039 37.77-13.424l63.542 36.956c-.854 4.024-1.312 8.193-1.312 12.468 0 33.084 26.916 60 60 60s60-26.916 60-60-26.916-60-60-60zm-197.77-82.576-63.542-36.956c.854-4.024 1.312-8.193 1.312-12.468 0-4.47-.507-8.822-1.438-13.016l64.104-40.066c10.255 8.177 23.229 13.082 37.334 13.082s27.079-4.905 37.334-13.082l64.104 40.066c-.931 4.194-1.438 8.546-1.438 13.016 0 4.275.458 8.444 1.312 12.469l-63.542 36.956c-10.321-8.386-23.466-13.425-37.77-13.425s-27.449 5.039-37.77 13.424zm217.77-49.424c0 11.028-8.972 20-20 20s-20-8.972-20-20 8.972-20 20-20 20 8.972 20 20zm-180-120c11.028 0 20 8.972 20 20s-8.972 20-20 20-20-8.972-20-20 8.972-20 20-20zm-180 120c0-11.028 8.972-20 20-20s20 8.972 20 20-8.972 20-20 20-20-8.972-20-20zm0 192c0-11.028 8.972-20 20-20s20 8.972 20 20-8.972 20-20 20-20-8.972-20-20zm200 100c0 11.028-8.972 20-20 20s-20-8.972-20-20 8.972-20 20-20 20 8.972 20 20zm-40-196c0-11.028 8.972-20 20-20s20 8.972 20 20-8.972 20-20 20-20-8.972-20-20zm180 116c-11.028 0-20-8.972-20-20s8.972-20 20-20 20 8.972 20 20-8.972 20-20 20z"/></g></svg>
