<svg
  id="cat_submit_dapp"
  enable-background="new 0 0 512 512"
  height="24"
  style="fill:#fff;"
  viewBox="0 0 512 512"
  width="24"
  xmlns="http://www.w3.org/2000/svg"
>
  <g>
    <path d="m200 276h51.716l-5.858 5.858c-7.811 7.811-7.811 20.474 0 28.284 7.811 7.811 20.474 7.811 28.284 0l39.997-39.998c7.649-7.643 7.929-20.366 0-28.289l-39.997-39.998c-7.811-7.811-20.474-7.811-28.284 0s-7.811 20.474 0 28.284l5.858 5.858h-51.716v-60c0-11.046-8.954-20-20-20h-160c-11.046 0-20 8.954-20 20v160c0 11.046 8.954 20 20 20h160c11.046 0 20-8.954 20-20zm-40 40h-120v-120h120z" />
    <path d="m492 0h-160c-11.046 0-20 8.954-20 20v160c0 11.046 8.954 20 20 20h160c11.046 0 20-8.954 20-20v-160c0-11.046-8.954-20-20-20zm-20 160h-120v-120h120z" />
    <path d="m492 312h-160c-11.046 0-20 8.954-20 20v160c0 11.046 8.954 20 20 20h160c11.046 0 20-8.954 20-20v-160c0-11.046-8.954-20-20-20zm-20 160h-120v-120h120z" />
    <circle cx="100" cy="256" r="20" />
    <circle cx="412" cy="100.002" r="20" />
    <circle cx="412" cy="412" r="20" />
    <path d="m241.858 150.142c7.811 7.811 20.474 7.811 28.284 0 7.811-7.811 7.811-20.474 0-28.284l-40-40c-7.811-7.811-20.474-7.811-28.284 0s-7.811 20.474 0 28.284z" />
    <path d="m241.858 361.858-40 40c-7.811 7.811-7.811 20.474 0 28.284 7.811 7.811 20.474 7.811 28.284 0l40-40c7.811-7.811 7.811-20.474 0-28.284s-20.474-7.811-28.284 0z" />
  </g>
</svg>
